<svg xmlns="http://www.w3.org/2000/svg" viewBox="0 0 600 160" fill="none">
  <!-- Skull on left -->
  <g transform="translate(20,0)">
    <path d="M58 72 Q58 32 100 32 Q142 32 142 72 L142 112 Q142 128 132 134 L132 150 L116 150 L116 138 L106 138 L106 150 L94 150 L94 138 L84 138 L84 150 L68 150 L68 134 Q58 128 58 112 Z"
          stroke="#FFFFFF" stroke-width="6" stroke-linejoin="round" stroke-linecap="round"/>
    <rect x="72" y="74" width="16" height="26" fill="#FFFFFF"/>
    <path d="M80 68 L80 74 M80 100 L80 106" stroke="#FFFFFF" stroke-width="3" stroke-linecap="round"/>
    <rect x="112" y="74" width="16" height="26" fill="#FFFFFF"/>
    <path d="M120 68 L120 74 M120 100 L120 106" stroke="#FFFFFF" stroke-width="3" stroke-linecap="round"/>
    <path d="M100 110 L94 122 L106 122 Z" fill="#FFFFFF"/>
  </g>
  <!-- Text on right -->
  <text x="200" y="92" font-family="Georgia, serif" font-size="42" font-weight="bold" fill="#FFFFFF" letter-spacing="3">CRYPTO</text>
  <text x="200" y="132" font-family="Georgia, serif" font-size="42" font-weight="bold" fill="#FFFFFF" letter-spacing="3">CEMETERY</text>
</svg>
